<mxfile host="app.diagrams.net" modified="2021-12-28T14:24:40.130Z" agent="5.0 (Windows NT 10.0; Win64; x64) AppleWebKit/537.36 (KHTML, like Gecko) Chrome/96.0.4664.110 Safari/537.36" etag="ESaUEgxjaixli4FLiyMr" version="16.1.0" type="github">
  <diagram id="-Xxpthv7uSg4Gohmp-dh" name="第 1 页">
    <mxGraphModel dx="1209" dy="711" grid="1" gridSize="10" guides="1" tooltips="1" connect="1" arrows="1" fold="1" page="1" pageScale="1" pageWidth="827" pageHeight="1169" math="0" shadow="0">
      <root>
        <mxCell id="0" />
        <mxCell id="1" parent="0" />
        <mxCell id="7_4k1kyiKsNaF-Zk8Y6C-1" value="Zookeeper" style="rounded=1;whiteSpace=wrap;html=1;strokeWidth=2;fontSize=24;" vertex="1" parent="1">
          <mxGeometry x="220" y="70" width="400" height="110" as="geometry" />
        </mxCell>
        <mxCell id="7_4k1kyiKsNaF-Zk8Y6C-2" value="" style="rounded=0;whiteSpace=wrap;html=1;fontSize=24;strokeWidth=2;fillColor=#f5f5f5;fontColor=#333333;strokeColor=none;" vertex="1" parent="1">
          <mxGeometry x="30" y="290" width="770" height="370" as="geometry" />
        </mxCell>
        <mxCell id="7_4k1kyiKsNaF-Zk8Y6C-4" value="" style="rounded=0;whiteSpace=wrap;html=1;fontSize=24;strokeWidth=2;fillColor=#0066CC;fontColor=#ffffff;strokeColor=none;" vertex="1" parent="1">
          <mxGeometry x="70" y="320" width="200" height="320" as="geometry" />
        </mxCell>
      </root>
    </mxGraphModel>
  </diagram>
</mxfile>
